<svg version="1" xmlns="http://www.w3.org/2000/svg" width="682.667" height="682.667" viewBox="0 0 512.000000 512.000000"><path d="M235.5 47.5c-26.4 5.8-47.9 23.2-57.7 46.7-7.8 18.4-7.8 40.2 0 58.6 8.1 19.3 25.1 35.5 44.9 42.8l7.8 2.9-4.5.3c-41.7 2.3-74.9 20-92.4 49.1-21.6 36-23.2 92.2-4.5 159.8 1.8 6.5 3.7 11.4 4.5 11.7.8.3 31.7.6 68.7.6s92.4.5 123.2 1.1c30.8.6 57.9.8 60.3.4l4.3-.6-8.3-9c-43.3-46.9-63-78.6-70.5-113.9-2.2-10.5-2.5-38.6-.5-50 2.5-14.1 7.1-30.5 14-50.5 3.9-11 7.9-24.3 9-29.5 6.7-30.9 4.6-57.3-6.3-77.7-12.3-23.3-31-37.8-54.7-42.7-9.4-1.9-28.8-2-37.3-.1zm27.8 9.7c10.6 24.6 14.2 44.1 11.7 63.8-2.7 21.2-11.2 39.4-28.5 61-2.8 3.6-6.9 8.7-9 11.5-3.6 4.7-3.8 4.8-3.3 2C241.4 148.1 257.7 47 258.1 47c.4 0 2.7 4.6 5.2 10.2zm-23.7 155.3c3.9 11.4 4.5 30.5 1.5 45.1-8.2 39.7-33 80.4-79.8 130.6-16 17.2-24.4 24.8-16 14.5 17.2-21.2 38.9-62.3 56.4-107.2 9.1-23.3 19-53.3 29.3-88.4l2.2-7.5 1.8 2.5c1.1 1.3 3.1 6 4.6 10.4zM435 433.7l-5.5 5.8 5.8-5.5c3.1-3 5.7-5.6 5.7-5.7 0-.8-1 .1-6 5.4zM239.8 507.7c.7.3 1.6.2 1.9-.1.4-.3-.2-.6-1.3-.5-1.1 0-1.4.3-.6.6zM270.8 507.7c.7.3 1.6.2 1.9-.1.4-.3-.2-.6-1.3-.5-1.1 0-1.4.3-.6.6z"/></svg>