<?xml version="1.0" standalone="no"?>
<!DOCTYPE svg PUBLIC "-//W3C//DTD SVG 20010904//EN"
 "http://www.w3.org/TR/2001/REC-SVG-20010904/DTD/svg10.dtd">
<svg version="1.0" xmlns="http://www.w3.org/2000/svg"
 width="1024.000000pt" height="1024.000000pt" viewBox="0 0 1024.000000 1024.000000"
 preserveAspectRatio="xMidYMid meet">
<metadata>
Created by potrace 1.11, written by Peter Selinger 2001-2013
</metadata>
<g transform="translate(0.000000,1024.000000) scale(0.100000,-0.100000)"
fill="#000000" stroke="none">
<path d="M5005 8069 c-92 -12 -188 -42 -291 -89 -261 -121 -461 -320 -585
-584 -64 -137 -70 -176 -72 -444 -1 -235 -1 -238 27 -317 41 -118 130 -283
201 -372 65 -81 199 -200 294 -261 47 -30 126 -69 240 -118 18 -8 31 -17 29
-20 -3 -2 -61 -11 -129 -19 -743 -92 -1215 -457 -1407 -1090 -64 -211 -82
-356 -82 -676 0 -373 43 -735 130 -1080 35 -140 38 -146 73 -159 68 -23 440
-29 1827 -29 1398 0 1710 5 1733 28 7 7 -3 26 -40 68 -378 437 -591 745 -731
1058 -125 277 -152 397 -159 710 -8 339 13 547 78 769 11 39 58 190 104 336
152 481 201 692 212 921 12 261 -43 546 -148 751 -70 139 -214 305 -353 409
-93 71 -294 172 -386 195 -77 19 -454 28 -565 13z m338 -86 c59 -125 126 -309
158 -432 26 -100 30 -138 35 -300 8 -236 -5 -376 -47 -507 -60 -190 -189 -415
-380 -664 -119 -154 -146 -186 -154 -178 -4 3 39 293 94 645 55 351 130 827
165 1058 65 419 71 455 85 455 5 0 24 -35 44 -77z m-356 -2243 c66 -134 78
-200 77 -445 0 -238 -3 -263 -61 -465 -157 -550 -574 -1180 -1201 -1819 -79
-80 -140 -139 -136 -131 4 8 39 61 77 118 170 255 332 550 485 882 226 491
383 913 602 1615 94 303 99 317 114 313 6 -2 25 -33 43 -68z"/>
</g>
</svg>
